<svg width="101" height="60" viewBox="0 0 101 60" fill="none" xmlns="http://www.w3.org/2000/svg">
<path d="M16.6592 52.2993L26.5264 40.3472H29.771L36.4178 52.2993H32.6283L31.2481 49.6885H22.071L20.0249 52.2993H16.6592ZM23.8144 47.5208H30.1585L27.7128 42.6585L23.8144 47.5208Z" fill="white"/>
<path d="M54.1182 42.4789H45.038L43.9847 50.0478H53.077L53.4402 47.4849L56.7333 48.0597L56.5396 49.4729C56.3822 50.5627 56.0311 51.3053 55.4742 51.7005C54.9173 52.0957 53.9487 52.2993 52.5443 52.2993H43.8999C42.4955 52.2993 41.5633 52.1077 41.1274 51.7005C40.6916 51.3053 40.5463 50.5627 40.7037 49.4729L41.5754 43.1735C41.7328 42.0837 42.0839 41.3412 42.6287 40.946C43.1856 40.5508 44.1542 40.3472 45.5707 40.3472H54.2151C55.6195 40.3472 56.5396 40.5508 56.9755 40.946C57.4234 41.3412 57.5687 42.0837 57.4113 43.1735L57.2539 44.2993L53.8155 44.7424L54.1182 42.4789Z" fill="white"/>
<path d="M60.4138 52.2993L62.0846 40.3472H64.8086L70.6321 47.5687L78.32 40.3472H81.0199L79.3491 52.2993H76.2255L77.2546 44.91C77.2788 44.7663 77.3151 44.5867 77.3636 44.3711C77.412 44.1556 77.4846 43.9041 77.5573 43.6406C77.3273 43.952 77.1335 44.2035 76.9762 44.3951C76.8067 44.5987 76.6614 44.7663 76.5403 44.8861L70.2689 50.8621H69.5909L64.966 44.8621C64.7965 44.6346 64.6513 44.419 64.5423 44.2154C64.4333 44.0238 64.3365 43.8202 64.2759 43.6406C64.2638 43.8921 64.2638 44.1196 64.2517 44.3112C64.2396 44.5148 64.2154 44.7184 64.1912 44.8981L63.1621 52.2873H60.4138V52.2993Z" fill="white"/>
<path d="M84.313 52.2995L85.9837 40.3354H100.827L100.536 42.3714H89.071L88.6957 45.042H95.3909L95.1124 47.078H88.4172L88.0056 50.048H99.6041L99.2893 52.2995H84.313Z" fill="white"/>
<path fill-rule="evenodd" clip-rule="evenodd" d="M55.002 7.98779C48.6095 16.2752 38.1491 21.7842 29.9042 27.5806C15.509 36.0956 9.41924 47.9279 16.7319 59.9638C5.07284 48.5267 11.5864 35.6525 26.6959 25.6405C36.1393 19.7603 45.5707 13.868 55.002 7.98779Z" fill="white"/>
<path fill-rule="evenodd" clip-rule="evenodd" d="M49.578 3.88037C43.3914 12.2037 32.3861 18.06 24.4803 23.4732C10.0851 31.9882 3.99529 43.8205 11.3079 55.8564C-0.351111 44.4193 6.16244 31.545 21.2719 21.5331C30.7033 15.6528 40.1467 9.77259 49.578 3.88037Z" fill="white"/>
<path fill-rule="evenodd" clip-rule="evenodd" d="M44.3357 0.0839844C38.1491 8.40734 27.1438 14.2636 19.238 19.6768C4.84279 28.1918 -1.24702 40.0121 6.06559 52.06C-5.59342 40.6229 0.92013 27.7487 16.0296 17.7367C25.461 11.8445 34.9044 5.96422 44.3357 0.0839844Z" fill="white"/>
</svg>
