<svg width="205" height="38" viewBox="0 0 205 38" fill="none" xmlns="http://www.w3.org/2000/svg">
<g clip-path="url(#clip0_35_51)">
<path d="M20.0618 0.777466C23.0473 0.777466 25.6301 1.29499 27.8054 2.33245C29.9808 3.36992 31.6415 4.83501 32.7851 6.73015C33.9288 8.62529 34.5006 10.8363 34.5006 13.3631C34.5006 15.89 33.9288 18.0524 32.7851 19.9475C31.6415 21.8427 29.9808 23.3078 27.8054 24.3452C25.6301 25.3827 23.0473 25.9002 20.0618 25.9002H4.57467V17.8337H19.4423C21.0316 17.8337 22.2705 17.4377 23.1593 16.6432C24.048 15.8487 24.4935 14.7553 24.4935 13.3631C24.4935 11.9709 24.048 10.829 23.1593 10.0345C22.2705 9.24 21.0316 8.84396 19.4423 8.84396H5.43242L9.86413 4.179V37.2225H0V0.777466H20.0618Z" fill="#011C6C"/>
<path d="M60.6621 0.777466L76.9117 37.2225H66.3805L52.7518 5.05368H55.6109L41.9346 37.2225H31.4033L47.6529 0.777466H60.6621ZM41.6487 30.225V22.1099H66.2852V30.225H41.6487Z" fill="#011C6C"/>
<path d="M113.414 30.1764L110.364 30.8082V0.777466H119.942V37.2225H107.505L86.871 7.24038L89.8731 6.60867V37.2225H80.2949V0.777466H93.0659L113.414 30.1764Z" fill="#011C6C"/>
<path d="M124.181 0.777466H161.35V9.71864H124.181V0.777466ZM137.809 5.19946H147.721V37.2225H137.809V5.19946Z" fill="#011C6C"/>
<path d="M183.747 38C179.522 38 175.812 37.2055 172.62 35.6189C169.427 34.0324 166.949 31.8116 165.186 28.9616C163.423 26.1116 162.541 22.7903 162.541 19C162.541 15.2097 163.423 11.8884 165.186 9.03836C166.949 6.18836 169.427 3.96765 172.62 2.38107C175.812 0.794501 179.522 0 183.747 0C187.971 0 191.719 0.794501 194.897 2.38107C198.073 3.96765 200.551 6.18836 202.331 9.03836C204.109 11.8884 205 15.2097 205 19C205 22.7903 204.111 26.1116 202.331 28.9616C200.551 31.8116 198.073 34.0324 194.897 35.6189C191.721 37.2055 188.004 38 183.747 38ZM183.747 29.0102C186.065 29.0102 188.066 28.6045 189.751 27.7954C191.435 26.9863 192.729 25.8347 193.634 24.3453C194.54 22.8559 194.993 21.0725 194.993 19C194.993 16.9275 194.54 15.1441 193.634 13.6547C192.729 12.1653 191.435 11.0137 189.751 10.2046C188.066 9.39552 186.065 8.98977 183.747 8.98977C181.428 8.98977 179.474 9.39552 177.79 10.2046C176.105 11.0137 174.802 12.1653 173.882 13.6547C172.96 15.1441 172.5 16.9275 172.5 19C172.5 21.0725 172.96 22.8559 173.882 24.3453C174.804 25.8347 176.105 26.9863 177.79 27.7954C179.474 28.6045 181.459 29.0102 183.747 29.0102Z" fill="#2F6CE1"/>
</g>
<defs>
<clipPath id="clip0_35_51">
<rect width="205" height="38" fill="white"/>
</clipPath>
</defs>
</svg>
