<svg width="1769" height="80" viewBox="0 0 1769 288" fill="none" xmlns="http://www.w3.org/2000/svg">
<path d="M24.651 23.6926H68.2604V97.1353H24.651V23.6926Z" fill="#105AF4"/>
<path d="M24.651 105.172H68.2604V180.146H24.651V105.172Z" fill="#4393F1"/>
<path d="M24.651 262.771H68.2604V188.943H24.651V262.771Z" fill="#98C6FB"/>
<path d="M156.385 262.771H228.276V188.943H156.385V262.771Z" fill="#105AF4"/>
<path d="M236.276 262.771H263.057V188.943H236.276V262.771Z" fill="#105AF4"/>
<path d="M156.385 97.1353H263.057V23.6926H156.385V97.1353Z" fill="#90C8FD"/>
<path d="M76.6771 110.911V180.146L148.474 180.12L76.6771 110.911Z" fill="#105AF4"/>
<path d="M76.5781 104.932H148.469L76.6771 180.146L76.5781 104.932Z" fill="#4393F1"/>
<path d="M283.651 287.417H0.895805V0H287.766V287.417H283.651ZM283.651 279.193V283.307H279.536V4.11458H283.651V8.22917H5.01039V4.11458H9.12497V283.307H5.01039V279.193H283.651Z" fill="#105AF4"/>
<path d="M429.143 149.869L398.372 181.056V220.64H382.456V70.0564H398.372V161.056L486.789 70.0564H505.081L439.893 138.244L509.602 220.64H490.664L429.143 149.869Z" fill="#191919"/>
<path d="M697.636 206.869V220.64H591.136V70.0564H694.406V83.8272H607.052V137.39H684.927V150.931H607.052V206.869H697.636Z" fill="#191919"/>
<path d="M842.405 168.577V220.64H826.717V168.577L766.467 70.0564H783.467L835.092 154.598L886.738 70.0564H902.655L842.405 168.577Z" fill="#191919"/>
<path d="M1085.94 220.64L1051.53 172.244C1047.65 172.676 1043.64 172.89 1039.48 172.89H999.026V220.64H983.109V70.0564H1039.48C1058.69 70.0564 1073.74 74.6501 1084.65 83.8272C1095.55 93.0095 1101.01 105.629 1101.01 121.681C1101.01 133.447 1098.03 143.385 1092.07 151.494C1086.12 159.593 1077.63 165.431 1066.59 169.015L1103.36 220.64H1085.94ZM1039.05 159.327C1053.96 159.327 1065.36 156.03 1073.26 149.431C1081.14 142.838 1085.09 133.588 1085.09 121.681C1085.09 109.489 1081.14 100.135 1073.26 93.6189C1065.36 87.0929 1053.96 83.8272 1039.05 83.8272H999.026V159.327H1039.05Z" fill="#191919"/>
<path d="M1260.2 221.931C1245.29 221.931 1231.77 218.598 1219.64 211.931C1207.53 205.265 1198.06 196.129 1191.25 184.515C1184.44 172.89 1181.04 159.838 1181.04 145.348C1181.04 130.864 1184.44 117.817 1191.25 106.202C1198.06 94.5771 1207.53 85.4313 1219.64 78.7646C1231.77 72.098 1245.29 68.7646 1260.2 68.7646C1275.12 68.7646 1288.56 72.0667 1300.54 78.6605C1312.51 85.2594 1321.94 94.4053 1328.83 106.098C1335.71 117.78 1339.16 130.864 1339.16 145.348C1339.16 159.838 1335.71 172.926 1328.83 184.619C1321.94 196.301 1312.51 205.442 1300.54 212.035C1288.56 218.634 1275.12 221.931 1260.2 221.931ZM1260.2 207.723C1272.11 207.723 1282.86 205.035 1292.47 199.66C1302.08 194.285 1309.61 186.838 1315.06 177.306C1320.5 167.765 1323.22 157.114 1323.22 145.348C1323.22 133.588 1320.5 122.942 1315.06 113.41C1309.61 103.869 1302.08 96.4105 1292.47 91.0355C1282.86 85.6501 1272.11 82.9521 1260.2 82.9521C1248.3 82.9521 1237.51 85.6501 1227.83 91.0355C1218.15 96.4105 1210.54 103.869 1205.02 113.41C1199.5 122.942 1196.75 133.588 1196.75 145.348C1196.75 157.114 1199.5 167.765 1205.02 177.306C1210.54 186.838 1218.15 194.285 1227.83 199.66C1237.51 205.035 1248.3 207.723 1260.2 207.723Z" fill="#191919"/>
<path d="M1495.98 221.931C1481.07 221.931 1467.62 218.634 1455.65 212.035C1443.68 205.442 1434.28 196.301 1427.46 184.619C1420.66 172.926 1417.25 159.838 1417.25 145.348C1417.25 130.864 1420.66 117.78 1427.46 106.098C1434.28 94.4053 1443.71 85.2594 1455.75 78.6605C1467.81 72.0667 1481.3 68.7646 1496.21 68.7646C1507.39 68.7646 1517.71 70.6344 1527.17 74.3688C1536.64 78.0928 1544.68 83.5355 1551.28 90.7021L1541.17 100.806C1529.41 88.9053 1514.56 82.9521 1496.63 82.9521C1484.72 82.9521 1473.9 85.6813 1464.15 91.1396C1454.4 96.5876 1446.76 104.046 1441.23 113.515C1435.72 122.973 1432.96 133.588 1432.96 145.348C1432.96 157.114 1435.72 167.733 1441.23 177.202C1446.76 186.66 1454.4 194.114 1464.15 199.556C1473.9 205.004 1484.72 207.723 1496.63 207.723C1514.7 207.723 1529.55 201.702 1541.17 189.66L1551.28 199.765C1544.68 206.947 1536.61 212.442 1527.07 216.244C1517.54 220.035 1507.18 221.931 1495.98 221.931Z" fill="#191919"/>
<path d="M1687.68 149.869L1656.91 181.056V220.64H1640.99V70.0564H1656.91V161.056L1745.32 70.0564H1763.61L1698.43 138.244L1768.13 220.64H1749.2L1687.68 149.869Z" fill="#191919"/>
</svg>
