<svg width="300" height="50" viewBox="0 0 100 12" fill="none" xmlns="http://www.w3.org/2000/svg">
<g clip-path="url(#clip0_1201_6312)">
<path d="M25.068 0.456522C25.6779 0.454977 26.2866 0.509575 26.8857 0.619565C27.4272 0.706025 27.9534 0.865194 28.4487 1.09239L28.2006 2.28261C27.7048 2.09485 27.1933 1.94758 26.6717 1.84239C26.1525 1.73466 25.6229 1.68001 25.0918 1.67935C23.6851 1.67935 22.5809 2.07609 21.779 2.86957C20.9772 3.66304 20.5729 4.77717 20.5661 6.21196C20.5661 7.60326 20.9455 8.67391 21.7043 9.42391C22.4631 10.1739 23.6013 10.5435 25.119 10.5326C25.4824 10.5319 25.8455 10.5101 26.2062 10.4674C26.5275 10.4228 26.8454 10.3574 27.1575 10.2717V6.7337H28.5846V11.1033C28.0535 11.3032 27.5008 11.4454 26.9367 11.5272C26.2757 11.6465 25.6046 11.7065 24.9321 11.7065C24.0786 11.7207 23.2294 11.5881 22.4246 11.3152C21.7273 11.0684 21.0909 10.6853 20.5559 10.1902C20.0414 9.6945 19.6419 9.09997 19.3837 8.44565C19.1152 7.72953 18.9829 6.97296 18.993 6.21196C18.9835 5.41771 19.1216 4.62821 19.4007 3.88043C19.6632 3.20128 20.0745 2.58412 20.6069 2.07065C21.1455 1.5483 21.7942 1.14249 22.5095 0.880435C23.3266 0.584738 24.1949 0.440878 25.068 0.456522ZM38.3936 7.59783C38.3985 8.13076 38.3065 8.66043 38.1218 9.16304C37.9579 9.64145 37.6982 10.0845 37.3573 10.4674C37.008 10.843 36.5795 11.1431 36.1002 11.3478C35.5772 11.5733 35.0086 11.6847 34.4353 11.6739C33.8509 11.6874 33.2706 11.576 32.7365 11.3478C32.2643 11.1395 31.8421 10.8397 31.4964 10.4674C31.1551 10.0821 30.8902 9.63997 30.7149 9.16304C30.3753 8.14502 30.3753 7.05063 30.7149 6.03261C30.887 5.55917 31.1523 5.1219 31.4964 4.74457C31.8376 4.36343 32.2607 4.05754 32.7365 3.84783C33.2706 3.61965 33.8509 3.50827 34.4353 3.52174C35.0086 3.51094 35.5772 3.62231 36.1002 3.84783C36.5832 4.05386 37.0125 4.36013 37.3573 4.74457C37.7007 5.11962 37.9608 5.55788 38.1218 6.03261C38.3065 6.53522 38.3985 7.06489 38.3936 7.59783ZM36.8647 7.59783C36.8669 7.21256 36.8155 6.82873 36.7118 6.45652C36.6207 6.12756 36.4663 5.81788 36.2565 5.54348C36.0671 5.27448 35.81 5.05576 35.509 4.90761C35.1739 4.75732 34.8086 4.67943 34.4387 4.67943C34.0689 4.67943 33.7035 4.75732 33.3685 4.90761C33.07 5.06051 32.8128 5.27826 32.6176 5.54348C32.4156 5.82646 32.2661 6.14089 32.1759 6.47283C32.0722 6.84503 32.0208 7.22886 32.023 7.61413C32.0199 8.00482 32.0714 8.39414 32.1759 8.77174C32.2719 9.09659 32.421 9.40477 32.6176 9.68478C32.8203 9.94416 33.0817 10.156 33.3821 10.3043C33.7171 10.4546 34.0825 10.5325 34.4523 10.5325C34.8222 10.5325 35.1875 10.4546 35.5226 10.3043C35.8204 10.1591 36.077 9.94645 36.2701 9.68478C36.4792 9.40357 36.6345 9.08888 36.7288 8.75543C36.8287 8.37724 36.8756 7.98793 36.8681 7.59783H36.8647ZM41.7913 9.48913C41.7747 9.74621 41.8399 10.0021 41.9782 10.2228C42.0642 10.311 42.1703 10.3789 42.2881 10.4213C42.406 10.4637 42.5325 10.4795 42.6577 10.4674C42.9158 10.4661 43.1727 10.4333 43.4222 10.3696L43.4901 11.462C43.0896 11.5859 42.6708 11.6465 42.25 11.6413C41.5365 11.6413 41.0268 11.4402 40.721 11.038C40.4048 10.6042 40.2439 10.0835 40.2623 9.55435V0H41.7913V9.48913ZM51.6445 11.5109H50.2005V10.4348C49.8896 10.7886 49.5157 11.0867 49.0963 11.3152C48.6176 11.5656 48.0782 11.6894 47.5333 11.6739C47.0843 11.6799 46.6407 11.5791 46.2422 11.3804C45.8488 11.1769 45.5067 10.8931 45.2399 10.5489C44.9385 10.1659 44.7086 9.7356 44.5604 9.27717C44.4086 8.75166 44.3343 8.20834 44.3395 7.66304C44.3293 7.06846 44.4329 6.47712 44.6453 5.91848C44.8403 5.42859 45.1414 4.984 45.5287 4.61413C45.9007 4.25781 46.3463 3.98012 46.8368 3.79891C47.3639 3.61071 47.9224 3.51677 48.4847 3.52174C48.7749 3.51921 49.0648 3.54103 49.3511 3.58696C49.6037 3.61788 49.8536 3.66693 50.0986 3.7337V0H51.6445V11.5109ZM47.958 10.5C48.4088 10.5104 48.8526 10.3912 49.2322 10.1576C49.5633 9.95695 49.8611 9.70962 50.1156 9.42391V4.90761C49.9028 4.82647 49.6802 4.77168 49.453 4.74457C49.194 4.71131 48.9329 4.69497 48.6715 4.69565C48.2947 4.67893 47.9185 4.73852 47.5673 4.87054C47.216 5.00257 46.8977 5.20408 46.633 5.46196C46.1369 5.97391 45.8855 6.70761 45.8855 7.66304C45.8521 8.38327 46.0224 9.09874 46.3781 9.7337C46.5468 9.98697 46.7835 10.1918 47.0634 10.3267C47.3432 10.4616 47.6559 10.5215 47.9682 10.5H47.958ZM61.8545 8.47826C61.8521 8.91221 61.7352 9.33851 61.5147 9.71739C61.3 10.0981 60.9979 10.4271 60.6313 10.6793C60.2057 10.9581 59.735 11.1675 59.2383 11.2989C58.6562 11.4456 58.0563 11.5169 57.4545 11.5109H54.2607V0.652174H57.7603C58.2659 0.647035 58.7696 0.712951 59.2553 0.847826C59.6736 0.952185 60.0662 1.13505 60.4105 1.38587C60.7264 1.60053 60.983 1.88597 61.158 2.21739C61.34 2.54895 61.4334 2.91872 61.4298 3.29348C61.4367 3.58885 61.3816 3.88255 61.2678 4.15706C61.154 4.43157 60.9837 4.68128 60.7672 4.8913C60.3074 5.33924 59.7423 5.67472 59.1194 5.86957C59.8589 5.9758 60.5499 6.28753 61.107 6.7663C61.3549 6.98198 61.5511 7.24677 61.6819 7.54235C61.8127 7.83794 61.8751 8.15727 61.8647 8.47826H61.8545ZM60.3595 8.42935C60.3681 8.13053 60.2854 7.83582 60.1217 7.58152C59.9626 7.33163 59.7406 7.12417 59.4761 6.97826C59.1832 6.8064 58.8612 6.68501 58.5248 6.61957C58.145 6.54234 57.7578 6.50408 57.3696 6.50544H55.7727V10.337H57.5734C58.2867 10.3756 58.9959 10.2111 59.612 9.86413C59.8568 9.70825 60.0553 9.49413 60.188 9.24266C60.3208 8.99119 60.3834 8.71096 60.3697 8.42935H60.3595ZM57.2167 5.33152C57.5779 5.33488 57.938 5.291 58.2869 5.20109C58.5967 5.12668 58.8902 4.99968 59.1533 4.82609C59.39 4.67529 59.5876 4.47451 59.7309 4.23913C59.8697 4.00012 59.9401 3.73009 59.9348 3.45652C59.9497 3.21609 59.8978 2.97618 59.7843 2.76132C59.6709 2.54647 59.5 2.36439 59.2892 2.2337C58.7948 1.94263 58.2208 1.80064 57.6414 1.82609H55.7727V5.33152H57.2167ZM68.4629 4.8913H68.0722C67.5315 4.87794 66.9954 4.9898 66.5093 5.21739C66.0461 5.46581 65.6639 5.83267 65.405 6.27717V11.4946H63.8761V3.66848H65.3371V5.16848C65.532 4.69868 65.8547 4.28766 66.2714 3.97826C66.7349 3.68818 67.2817 3.54556 67.8344 3.57065C68.0471 3.56525 68.2593 3.59277 68.4629 3.65217V4.8913ZM77.2969 7.59783C77.3 8.13063 77.2081 8.66002 77.025 9.16304C76.8611 9.64145 76.6014 10.0845 76.2606 10.4674C75.9105 10.8423 75.4822 11.1423 75.0034 11.3478C74.474 11.563 73.905 11.6739 73.3301 11.6739C72.7552 11.6739 72.1861 11.563 71.6567 11.3478C71.1841 11.1403 70.7617 10.8404 70.4166 10.4674C70.0741 10.0829 69.8091 9.64057 69.6351 9.16304C69.2952 8.14506 69.2952 7.05059 69.6351 6.03261C69.8062 5.55873 70.0716 5.12127 70.4166 4.74457C70.7572 4.36274 71.1804 4.05673 71.6567 3.84783C72.1861 3.63267 72.7552 3.5218 73.3301 3.5218C73.905 3.5218 74.474 3.63267 75.0034 3.84783C75.4859 4.0547 75.9151 4.36084 76.2606 4.74457C76.6039 5.11962 76.864 5.55788 77.025 6.03261C77.2046 6.53621 77.2931 7.06559 77.2867 7.59783H77.2969ZM75.7679 7.59783C75.7701 7.21256 75.7187 6.82873 75.615 6.45652C75.5198 6.12662 75.3608 5.81687 75.1461 5.54348C74.9608 5.27057 74.7073 5.0464 74.4088 4.8913C74.0738 4.74102 73.7084 4.66313 73.3386 4.66313C72.9687 4.66313 72.6034 4.74102 72.2683 4.8913C71.9593 5.04588 71.6936 5.26957 71.4936 5.54348C71.2903 5.82573 71.1407 6.14039 71.0519 6.47283C70.9483 6.84503 70.8969 7.22886 70.8991 7.61413C70.896 8.00482 70.9474 8.39414 71.0519 8.77174C71.1448 9.10278 71.294 9.41681 71.4936 9.70109C71.6963 9.96047 71.9577 10.1723 72.2581 10.3207C72.5932 10.4709 72.9585 10.5488 73.3284 10.5488C73.6982 10.5488 74.0636 10.4709 74.3986 10.3207C74.6959 10.1745 74.9522 9.96205 75.1461 9.70109C75.3553 9.41987 75.5106 9.10518 75.6048 8.77174C75.7143 8.38933 75.7692 7.99441 75.7679 7.59783ZM79.2471 11.5109V0H80.7761V7.38587L84.0378 3.68478H85.8046L82.3458 7.53261L86.0832 11.5109H84.2315L80.7659 7.63043V11.5109H79.2471ZM90.3371 3.52174C90.8029 3.51157 91.2658 3.59487 91.6962 3.7663C92.0724 3.91682 92.4092 4.14549 92.6824 4.43586C92.9556 4.72623 93.1583 5.0711 93.2761 5.44565C93.4152 5.84499 93.484 6.26375 93.4799 6.68478C93.4796 7.13 93.4225 7.5735 93.31 8.00543H88.1524C88.1576 8.35386 88.2148 8.69977 88.3223 9.03261C88.4176 9.32582 88.5736 9.59755 88.7809 9.83152C89.0089 10.0576 89.2879 10.2305 89.5964 10.337C89.99 10.4653 90.404 10.526 90.8195 10.5163C91.2368 10.5195 91.6531 10.4757 92.0597 10.3859C92.4308 10.306 92.7945 10.1969 93.1469 10.0598L93.3508 11.1522C92.944 11.3275 92.516 11.4535 92.0767 11.5272C91.5908 11.626 91.0954 11.6752 90.5987 11.6739C89.9885 11.6857 89.3821 11.5804 88.8149 11.3641C88.3422 11.1641 87.9193 10.8695 87.5748 10.5C87.2384 10.1168 86.9843 9.67352 86.8273 9.19565C86.6647 8.68315 86.5845 8.14984 86.5895 7.61413C86.5858 7.07194 86.6718 6.53261 86.8443 6.0163C87.0006 5.54148 87.2484 5.09903 87.5748 4.71196C87.8963 4.33555 88.303 4.03445 88.764 3.83152C89.2532 3.61434 89.788 3.50833 90.3269 3.52174H90.3371ZM90.2861 4.61413C89.9866 4.60725 89.6897 4.66872 89.4197 4.79348C89.1721 4.91273 88.9525 5.07916 88.7742 5.28261C88.5829 5.4991 88.4354 5.74792 88.3393 6.0163C88.2365 6.29489 88.1736 6.5856 88.1524 6.88043H91.9917C92.0255 6.59292 92.0198 6.30239 91.9748 6.0163C91.9389 5.75613 91.8462 5.50614 91.7029 5.28261C91.5644 5.07489 91.3709 4.90612 91.1423 4.79348C90.8731 4.66664 90.5757 4.60506 90.2759 4.61413H90.2861ZM100.01 4.8913H99.6195C99.0788 4.87794 98.5427 4.9898 98.0566 5.21739C97.5934 5.46581 97.2112 5.83267 96.9523 6.27717V11.4946H95.4234V3.66848H96.8844V5.16848C97.0805 4.69931 97.4029 4.28856 97.8187 3.97826C98.2824 3.68879 98.8291 3.54623 99.3817 3.57065C99.5944 3.56525 99.8066 3.59277 100.01 3.65217V4.8913Z" fill="white"/>
<path d="M13.4344 8.90241H11.056C10.9766 8.90087 10.899 8.92613 10.8369 8.9738C10.7749 9.02147 10.7322 9.08852 10.7163 9.16328L10.193 11.6089C10.1828 11.6569 10.184 11.7064 10.1964 11.7538C10.2089 11.8012 10.2323 11.8454 10.2649 11.883C10.2975 11.9206 10.3386 11.9506 10.3849 11.9709C10.4313 11.9912 10.4818 12.0012 10.5328 12.0002H13.9305C13.9814 12.0012 14.032 11.9912 14.0783 11.9709C14.1247 11.9506 14.1657 11.9206 14.1984 11.883C14.231 11.8454 14.2544 11.8012 14.2668 11.7538C14.2793 11.7064 14.2804 11.6569 14.2702 11.6089L13.7538 9.16328C13.7386 9.09177 13.6989 9.0272 13.641 8.97991C13.5831 8.93261 13.5104 8.90533 13.4344 8.90241Z" fill="#F0D7A5"/>
<path d="M8.33785 8.90241H5.95949C5.88 8.90087 5.80247 8.92613 5.74038 8.9738C5.6783 9.02147 5.6356 9.08852 5.61972 9.16328L5.09648 11.6089C5.08627 11.6569 5.08744 11.7064 5.09988 11.7538C5.11232 11.8012 5.13572 11.8454 5.16835 11.883C5.20098 11.9206 5.242 11.9506 5.28837 11.9709C5.33475 11.9912 5.38529 12.0012 5.43624 12.0002H8.8509C8.90185 12.0012 8.95239 11.9912 8.99877 11.9709C9.04514 11.9506 9.08616 11.9206 9.11879 11.883C9.15142 11.8454 9.17482 11.8012 9.18726 11.7538C9.1997 11.7064 9.20087 11.6569 9.19066 11.6089L8.67422 9.16328C8.65844 9.08907 8.61624 9.02245 8.55486 8.97485C8.49348 8.92725 8.41676 8.90164 8.33785 8.90241Z" fill="#F0D7A5"/>
<path d="M3.24141 8.90241H0.863049C0.783562 8.90087 0.70603 8.92613 0.643948 8.9738C0.581867 9.02147 0.539167 9.08852 0.523283 9.16328L4.2961e-05 11.6089C-0.0101613 11.6569 -0.0089998 11.7064 0.00344148 11.7538C0.0158828 11.8012 0.039285 11.8454 0.0719147 11.883C0.104544 11.9206 0.145565 11.9506 0.191939 11.9709C0.238313 11.9912 0.28885 12.0012 0.339809 12.0002H3.75446C3.80542 12.0012 3.85596 11.9912 3.90233 11.9709C3.9487 11.9506 3.98972 11.9206 4.02235 11.883C4.05498 11.8454 4.07839 11.8012 4.09083 11.7538C4.10327 11.7064 4.10443 11.6569 4.09423 11.6089L3.57778 9.16328C3.562 9.08907 3.5198 9.02245 3.45843 8.97485C3.39705 8.92725 3.32032 8.90164 3.24141 8.90241Z" fill="#F0D7A5"/>
<path d="M13.4344 4.66315H11.056C10.9766 4.66161 10.899 4.68688 10.8369 4.73454C10.7749 4.78221 10.7322 4.84926 10.7163 4.92402L10.193 7.36967C10.1828 7.4176 10.184 7.46712 10.1964 7.51455C10.2089 7.56199 10.2323 7.60613 10.2649 7.64371C10.2975 7.68129 10.3386 7.71134 10.3849 7.73164C10.4313 7.75194 10.4818 7.76197 10.5328 7.76098H13.9305C13.9814 7.76197 14.032 7.75194 14.0783 7.73164C14.1247 7.71134 14.1657 7.68129 14.1984 7.64371C14.231 7.60613 14.2544 7.56199 14.2668 7.51455C14.2793 7.46712 14.2804 7.4176 14.2702 7.36967L13.7538 4.92402C13.7386 4.85251 13.6989 4.78794 13.641 4.74065C13.5831 4.69336 13.5104 4.66607 13.4344 4.66315Z" fill="#F0D7A5"/>
<path d="M8.33785 4.66315H5.95949C5.88 4.66161 5.80247 4.68688 5.74038 4.73454C5.6783 4.78221 5.6356 4.84926 5.61972 4.92402L5.09648 7.36967C5.08627 7.4176 5.08744 7.46712 5.09988 7.51455C5.11232 7.56199 5.13572 7.60613 5.16835 7.64371C5.20098 7.68129 5.242 7.71134 5.28837 7.73164C5.33475 7.75194 5.38529 7.76197 5.43624 7.76098H8.8509C8.90185 7.76197 8.95239 7.75194 8.99877 7.73164C9.04514 7.71134 9.08616 7.68129 9.11879 7.64371C9.15142 7.60613 9.17482 7.56199 9.18726 7.51455C9.1997 7.46712 9.20087 7.4176 9.19066 7.36967L8.67422 4.92402C8.65844 4.84982 8.61624 4.7832 8.55486 4.73559C8.49348 4.68799 8.41676 4.66238 8.33785 4.66315Z" fill="#F0D7A5"/>
<path d="M13.4344 0.423894H11.056C10.9766 0.422356 10.899 0.447618 10.8369 0.495284C10.7749 0.54295 10.7322 0.61 10.7163 0.684764L10.193 3.13042C10.1828 3.17834 10.184 3.22786 10.1964 3.2753C10.2089 3.32273 10.2323 3.36688 10.2649 3.40446C10.2975 3.44204 10.3386 3.47209 10.3849 3.49239C10.4313 3.51269 10.4818 3.52271 10.5328 3.52172H13.9305C13.9814 3.52271 14.032 3.51269 14.0783 3.49239C14.1247 3.47209 14.1657 3.44204 14.1984 3.40446C14.231 3.36688 14.2544 3.32273 14.2668 3.2753C14.2793 3.22786 14.2804 3.17834 14.2702 3.13042L13.7674 0.684764C13.7517 0.61111 13.71 0.544912 13.6493 0.497375C13.5887 0.449837 13.5127 0.423879 13.4344 0.423894Z" fill="#F0D7A5"/>
</g>
<defs>
<clipPath id="clip0_1201_6312">
<rect width="100" height="12" fill="white"/>
</clipPath>
</defs>
</svg>
