<svg width="266" height="60" viewBox="0 0 266 60" fill="none" xmlns="http://www.w3.org/2000/svg">
<path d="M22.5 46.02C20.9 46.02 19.5 45.68 18.3 45C17.14 44.36 16.56 43.22 16.56 41.58C16.56 40.54 16.82 39.38 17.34 38.1C18.06 38.9 18.72 39.46 19.32 39.78C19.96 40.1 20.64 40.26 21.36 40.26C23.36 40.26 24.84 39.14 25.8 36.9C26.8 34.66 27.3 32.18 27.3 29.46C27.3 24.38 25.4 21.84 21.6 21.84C20.52 21.84 19.6 21.9 18.84 22.02L13.92 45H5.28L13.44 6.84L22.32 5.64L19.5 18.96H19.86C21.38 18.96 22.8 18.48 24.12 17.52C25.44 16.52 26.5 15.28 27.3 13.8C28.1 12.28 28.5 10.76 28.5 9.24C28.5 7.4 27.84 5.86 26.52 4.62C25.24 3.38 23.26 2.76 20.58 2.76C18.14 2.76 15.76 3.32 13.44 4.44C11.12 5.52 9.22 7.16 7.74 9.36C6.3 11.56 5.58 14.22 5.58 17.34C5.58 18.82 5.72 19.86 6 20.46C6.28 21.02 6.42 21.34 6.42 21.42C4.3 21.42 2.7 21 1.62 20.16C0.54 19.28 0 17.86 0 15.9C0 13.18 1.02 10.6 3.06 8.16C5.1 5.72 7.8 3.76 11.16 2.28C14.52 0.760001 18.06 0 21.78 0C24.58 0 26.94 0.44 28.86 1.32C30.78 2.2 32.2 3.36 33.12 4.8C34.08 6.24 34.56 7.82 34.56 9.54C34.56 11.38 34.04 13.16 33 14.88C31.96 16.6 30.48 18 28.56 19.08C30.96 19.52 32.74 20.64 33.9 22.44C35.06 24.2 35.64 26.3 35.64 28.74C35.64 31.02 35.2 33.5 34.32 36.18C33.48 38.86 32.06 41.18 30.06 43.14C28.1 45.06 25.58 46.02 22.5 46.02Z" fill="white"/>
<path d="M41.7975 15H50.4375L49.6575 18.72C51.0175 17.52 52.2375 16.6 53.3175 15.96C54.4375 15.32 55.6375 15 56.9175 15C58.1975 15 59.1975 15.44 59.9175 16.32C60.6775 17.2 61.0575 18.26 61.0575 19.5C61.0575 20.66 60.6775 21.68 59.9175 22.56C59.1575 23.44 58.0975 23.88 56.7375 23.88C55.8575 23.88 55.2575 23.68 54.9375 23.28C54.6575 22.84 54.4375 22.22 54.2775 21.42C54.1575 20.9 54.0375 20.52 53.9175 20.28C53.7975 20.04 53.5775 19.92 53.2575 19.92C52.4175 19.92 51.6975 20.1 51.0975 20.46C50.5375 20.78 49.7975 21.36 48.8775 22.2L44.0775 45H35.4375L41.7975 15Z" fill="white"/>
<path d="M67.4761 45.36C65.1961 45.36 63.2961 44.58 61.7761 43.02C60.2561 41.46 59.4961 39.02 59.4961 35.7C59.4961 32.74 60.0761 29.64 61.2361 26.4C62.4361 23.12 64.1961 20.36 66.5161 18.12C68.8761 15.84 71.6761 14.7 74.9161 14.7C76.5561 14.7 77.7761 14.98 78.5761 15.54C79.3761 16.1 79.7761 16.84 79.7761 17.76V18.18L80.4361 15H89.0761L84.7561 35.4C84.5961 36 84.5161 36.64 84.5161 37.32C84.5161 39.04 85.3361 39.9 86.9761 39.9C88.0961 39.9 89.0561 39.38 89.8561 38.34C90.6961 37.3 91.3561 35.94 91.8361 34.26H94.3561C92.8761 38.58 91.0361 41.52 88.8361 43.08C86.6761 44.6 84.4961 45.36 82.2961 45.36C80.6161 45.36 79.2561 44.9 78.2161 43.98C77.2161 43.02 76.6161 41.64 76.4161 39.84C75.2561 41.48 73.9561 42.82 72.5161 43.86C71.1161 44.86 69.4361 45.36 67.4761 45.36ZM71.3761 39.54C72.3761 39.54 73.3561 39.08 74.3161 38.16C75.3161 37.2 75.9961 35.9 76.3561 34.26L79.2361 20.7C79.2361 20.18 79.0361 19.68 78.6361 19.2C78.2361 18.68 77.6161 18.42 76.7761 18.42C75.1761 18.42 73.7361 19.36 72.4561 21.24C71.1761 23.08 70.1761 25.32 69.4561 27.96C68.7361 30.56 68.3761 32.86 68.3761 34.86C68.3761 36.86 68.6561 38.14 69.2161 38.7C69.8161 39.26 70.5361 39.54 71.3761 39.54Z" fill="white"/>
<path d="M113.518 45.36C111.078 45.36 109.278 44.72 108.118 43.44C106.998 42.12 106.438 40.5 106.438 38.58C106.438 37.74 106.538 36.8 106.738 35.76C106.938 34.68 107.138 33.64 107.338 32.64C107.578 31.64 107.738 31 107.818 30.72C108.138 29.32 108.438 27.94 108.718 26.58C108.998 25.22 109.138 24.12 109.138 23.28C109.138 21.24 108.418 20.22 106.978 20.22C105.938 20.22 105.018 20.74 104.218 21.78C103.418 22.78 102.778 24.1 102.298 25.74L98.2181 45H89.5781L95.9381 15H104.578L103.918 18.12C105.918 15.88 108.258 14.76 110.938 14.76C112.978 14.76 114.598 15.32 115.798 16.44C116.998 17.56 117.598 19.26 117.598 21.54C117.598 22.7 117.458 24 117.178 25.44C116.898 26.84 116.498 28.56 115.978 30.6C115.658 31.84 115.358 33.06 115.078 34.26C114.838 35.42 114.718 36.34 114.718 37.02C114.718 37.82 114.898 38.44 115.258 38.88C115.618 39.32 116.238 39.54 117.118 39.54C118.318 39.54 119.278 39.12 119.998 38.28C120.718 37.4 121.438 36.06 122.158 34.26H124.678C123.198 38.66 121.478 41.62 119.518 43.14C117.598 44.62 115.598 45.36 113.518 45.36Z" fill="white"/>
<path d="M129.351 45.36C127.071 45.36 125.171 44.58 123.651 43.02C122.131 41.46 121.371 39.02 121.371 35.7C121.371 32.74 121.951 29.64 123.111 26.4C124.311 23.12 126.071 20.36 128.391 18.12C130.751 15.84 133.551 14.7 136.791 14.7C138.431 14.7 139.651 14.98 140.451 15.54C141.251 16.1 141.651 16.84 141.651 17.76V18L144.591 4.2L153.471 3L146.571 35.4C146.411 36 146.331 36.58 146.331 37.14C146.331 38.74 147.151 39.54 148.791 39.54C149.511 39.54 150.151 39.42 150.711 39.18C150.551 41.18 149.831 42.72 148.551 43.8C147.311 44.84 145.831 45.36 144.111 45.36C142.511 45.36 141.151 44.96 140.031 44.16C138.951 43.32 138.231 42.06 137.871 40.38C135.471 43.7 132.631 45.36 129.351 45.36ZM133.251 39.54C134.131 39.54 135.011 39.16 135.891 38.4C136.811 37.64 137.491 36.58 137.931 35.22L138.171 34.26L141.111 20.52C140.751 19.12 139.931 18.42 138.651 18.42C137.051 18.42 135.611 19.36 134.331 21.24C133.051 23.08 132.051 25.32 131.331 27.96C130.611 30.56 130.251 32.86 130.251 34.86C130.251 36.86 130.531 38.14 131.091 38.7C131.691 39.26 132.411 39.54 133.251 39.54Z" fill="white"/>
<path d="M169.634 45.36C167.714 45.36 166.154 44.76 164.954 43.56C163.794 42.36 163.214 40.56 163.214 38.16C163.214 37.16 163.374 35.86 163.694 34.26L170.114 4.2L178.994 3L172.094 35.4C171.934 36 171.854 36.64 171.854 37.32C171.854 38.12 172.034 38.7 172.394 39.06C172.794 39.38 173.434 39.54 174.314 39.54C175.474 39.54 176.554 39.06 177.554 38.1C178.554 37.1 179.274 35.82 179.714 34.26H182.234C180.754 38.58 178.854 41.52 176.534 43.08C174.214 44.6 171.914 45.36 169.634 45.36Z" fill="white"/>
<path d="M188.45 45.24C185.49 45.24 183.15 44.48 181.43 42.96C179.71 41.44 178.85 39.04 178.85 35.76C178.85 33.04 179.41 30.02 180.53 26.7C181.65 23.38 183.45 20.52 185.93 18.12C188.41 15.68 191.53 14.46 195.29 14.46C200.41 14.46 202.97 17.66 202.97 24.06V24.12C203.09 24.16 203.31 24.18 203.63 24.18C204.95 24.18 206.47 23.84 208.19 23.16C209.91 22.44 211.47 21.58 212.87 20.58L213.41 22.2C212.25 23.44 210.73 24.5 208.85 25.38C207.01 26.22 204.99 26.82 202.79 27.18C202.47 30.82 201.65 34 200.33 36.72C199.01 39.44 197.31 41.54 195.23 43.02C193.15 44.5 190.89 45.24 188.45 45.24ZM190.85 39.84C191.81 39.84 192.77 39.3 193.73 38.22C194.69 37.1 195.53 35.6 196.25 33.72C196.97 31.8 197.49 29.68 197.81 27.36C196.73 27.12 196.19 26.28 196.19 24.84C196.19 23.2 196.81 22.12 198.05 21.6C197.97 20.28 197.77 19.38 197.45 18.9C197.13 18.38 196.57 18.12 195.77 18.12C194.45 18.12 193.17 19.08 191.93 21C190.69 22.92 189.69 25.22 188.93 27.9C188.17 30.58 187.79 32.94 187.79 34.98C187.79 36.9 188.01 38.2 188.45 38.88C188.89 39.52 189.69 39.84 190.85 39.84Z" fill="white"/>
<path d="M216.677 60C214.757 60 213.157 59.5 211.877 58.5C210.597 57.5 209.957 56.06 209.957 54.18C209.957 51.9 210.877 50.06 212.717 48.66C214.557 47.3 216.897 46.16 219.737 45.24L220.457 42.06C218.417 44.26 216.017 45.36 213.257 45.36C210.977 45.36 209.077 44.58 207.557 43.02C206.037 41.46 205.277 39.02 205.277 35.7C205.277 32.74 205.857 29.64 207.017 26.4C208.217 23.12 209.977 20.36 212.297 18.12C214.657 15.84 217.457 14.7 220.697 14.7C222.337 14.7 223.557 14.98 224.357 15.54C225.157 16.1 225.557 16.84 225.557 17.76V18.12L226.217 15H234.857L228.917 42.84C230.837 42.2 232.377 41.24 233.537 39.96C234.697 38.68 235.677 36.78 236.477 34.26H238.997C237.917 37.82 236.457 40.44 234.617 42.12C232.777 43.76 230.697 44.88 228.377 45.48L227.477 49.8C226.677 53.68 225.297 56.34 223.337 57.78C221.377 59.26 219.157 60 216.677 60ZM217.157 39.54C218.077 39.54 219.017 39.12 219.977 38.28C220.937 37.44 221.597 36.3 221.957 34.86L225.017 20.64C225.017 20.16 224.817 19.68 224.417 19.2C224.017 18.68 223.397 18.42 222.557 18.42C220.957 18.42 219.517 19.36 218.237 21.24C216.957 23.08 215.957 25.32 215.237 27.96C214.517 30.56 214.157 32.86 214.157 34.86C214.157 36.86 214.437 38.14 214.997 38.7C215.597 39.26 216.317 39.54 217.157 39.54ZM215.297 55.32C215.977 55.32 216.637 54.86 217.277 53.94C217.917 53.02 218.417 51.7 218.777 49.98L219.137 48.24C215.217 49.68 213.257 51.38 213.257 53.34C213.257 53.86 213.437 54.32 213.797 54.72C214.157 55.12 214.657 55.32 215.297 55.32Z" fill="white"/>
<path d="M245.227 45.24C242.267 45.24 239.927 44.48 238.207 42.96C236.487 41.44 235.627 39.04 235.627 35.76C235.627 33 236.167 29.98 237.247 26.7C238.327 23.38 240.087 20.52 242.527 18.12C244.967 15.68 248.087 14.46 251.887 14.46C256.607 14.46 259.147 17.16 259.507 22.56C260.387 22.36 261.167 21.88 261.847 21.12C262.527 20.32 263.167 19.42 263.767 18.42H265.687C264.607 20.58 263.647 22.28 262.807 23.52C261.967 24.72 260.867 25.7 259.507 26.46C259.267 30.22 258.487 33.52 257.167 36.36C255.887 39.2 254.207 41.4 252.127 42.96C250.047 44.48 247.747 45.24 245.227 45.24ZM247.627 39.84C249.107 39.84 250.487 38.64 251.767 36.24C253.047 33.84 253.927 30.88 254.407 27.36C253.447 27 252.967 26.1 252.967 24.66C252.967 23.1 253.527 22.06 254.647 21.54C254.567 20.26 254.347 19.38 253.987 18.9C253.667 18.38 253.127 18.12 252.367 18.12C251.047 18.12 249.787 19.08 248.587 21C247.387 22.88 246.407 25.18 245.647 27.9C244.927 30.58 244.567 32.94 244.567 34.98C244.567 36.9 244.787 38.2 245.227 38.88C245.667 39.52 246.467 39.84 247.627 39.84Z" fill="white"/>
</svg>
