<svg xmlns="http://www.w3.org/2000/svg" width="911" height="133" viewBox="0 0 911 133" fill="none">
<path d="M153.281 31.8748C124.149 31.8748 105.845 51.2959 105.845 81.9811C105.845 112.666 124.173 132.015 153.281 132.015C182.388 132.015 200.741 112.594 200.741 81.9811C200.741 51.3687 182.388 31.8748 153.281 31.8748ZM153.281 109.68C140.293 109.68 132.913 99.9699 132.913 81.9811C132.913 63.9924 140.196 54.209 153.281 54.209C166.366 54.209 173.673 63.9196 173.673 81.9811C173.673 100.043 166.293 109.68 153.281 109.68Z" fill="#ffffff"/>
<path d="M267.573 88.39C267.573 99.9698 260.461 108.418 249.512 108.418C239.267 108.418 235.189 101.135 235.189 90.7934V33.6469H208.121V98.9017C208.121 118.93 219.336 132.015 239.364 132.015C253.93 132.015 263.034 125.169 268.035 115.288V130.582H294.739V33.6469H267.573V88.39Z" fill="#ffffff"/>
<path d="M365.14 31.8748C349.919 31.8748 340.864 38.5508 335.766 48.6012V33.647H309.062V130.582H336.106V75.4994C336.106 63.9196 343.388 55.4714 355.163 55.4714C365.674 55.4714 370.311 62.1474 370.311 73.096V130.582H397.452V65.0363C397.549 43.6974 385.435 31.8748 365.14 31.8748Z" fill="#ffffff"/>
<path d="M474.359 48.2613C468.849 37.2156 459.235 31.8748 445.713 31.8748C419.98 31.8748 404.832 51.4658 404.832 82.0782C404.832 112.691 419.713 132.015 446.247 132.015C459.235 132.015 469.213 127.305 474.893 114.754V130.582H501.597V0H474.359V48.2613ZM453.19 109.68C439.474 109.68 431.9 99.3387 431.9 81.9811C431.9 64.6235 439.571 54.209 453.19 54.209C466.809 54.209 474.359 64.4536 474.359 81.9811C474.359 99.5086 466.882 109.68 453.19 109.68Z" fill="#ffffff"/>
<path d="M562.482 108.612C549.761 108.612 549.761 100.771 549.761 96.474V57.2435H572.023V33.6469H549.761V5.97189L522.693 13.5218V33.6469H510.361V57.2435H522.693V104.388C522.693 126.382 536.312 131.99 553.597 131.99C560.133 131.968 566.647 131.218 573.018 129.757L572.508 107.69C569.19 108.213 565.841 108.521 562.482 108.612Z" fill="#ffffff"/>
<path d="M624.435 31.8748C599.164 31.8748 583.166 42.9934 577.898 62.4873L604.602 66.9541C607.029 59.0157 612.613 53.675 623.294 53.675C632.835 53.675 636.841 57.8748 636.841 63.2155C636.841 71.4938 627.397 72.1007 614.676 73.533C595.984 75.5722 576.029 78.8738 576.029 102.47C576.029 120.799 588.167 132.015 608.073 132.015C620.988 132.015 631.403 127.305 637.205 115.992V130.558H663.909V65.3519C663.982 43.9644 650.605 31.8748 624.435 31.8748ZM636.913 92.5656C636.913 102.907 627.907 110.117 615.72 110.117C607.005 110.117 603.072 106.549 603.072 100.407C603.072 92.0315 610.112 90.9634 620.066 89.7253C625.762 89.1373 631.393 88.0322 636.889 86.4237L636.913 92.5656Z" fill="#ffffff"/>
<path d="M733.485 31.8748C719.963 31.8748 710.349 37.2156 704.741 48.2613V0H677.673V130.582H704.377V114.754C709.985 127.305 720.06 132.015 733.048 132.015C759.582 132.015 774.439 112.424 774.439 82.0782C774.439 51.7328 759.12 31.8748 733.485 31.8748ZM726.008 109.68C712.316 109.68 704.741 99.3387 704.741 81.9811C704.741 64.6235 712.316 54.209 726.008 54.209C739.699 54.209 747.201 64.4536 747.201 81.9811C747.201 99.5086 739.627 109.68 726.008 109.68Z" fill="#ffffff"/>
<path d="M809.688 0H782.62V130.582H809.688V0Z" fill="#ffffff"/>
<path d="M910.362 77.1744C910.362 49.7665 893.708 31.8748 865.572 31.8748C836.44 31.8748 817.966 51.2959 817.966 82.7094C817.966 112.958 835.129 132.015 865.135 132.015C886.984 132.015 902.181 121.964 908.832 106.816L883.998 100.14C881.327 105.311 876.156 110.214 865.839 110.214C853.361 110.214 846.248 102.932 845.35 91.1576H910.362V77.1744ZM883.294 72.829H845.471C846.806 60.8122 854.186 53.6021 865.499 53.6021C875.452 53.6021 883.294 59.3799 883.294 72.4648V72.829Z" fill="#ffffff"/>
<path d="M103.417 43.843C103.417 21.6545 89.1912 2.42764 62.2688 2.42764H0V28.7189H57.0736C68.1679 28.7189 75.2323 34.8122 75.2323 44.8384C75.2323 55.3015 67.6338 62.5358 55.6413 62.5358H0V130.728H27.9906V88.2201H50.2762L70.7655 130.728H102.082L79.3593 84.2874C94.2892 77.1259 103.417 61.3948 103.417 43.843Z" fill="#ffffff"/>
</svg>