<svg width="95" height="24" viewBox="0 0 95 24" fill="none" xmlns="http://www.w3.org/2000/svg">
<g id="Nilos Logo - Color - Black text">
<path id="Path 31" fill-rule="evenodd" clip-rule="evenodd" d="M5.94191 23.9784H8.43751V9.29083C8.43751 5.66949 5.77727 2.73389 2.4956 2.73389H0V17.4214C0 21.0428 2.66024 23.9784 5.94192 23.9784" fill="white"/>
<path id="Path 32" fill-rule="evenodd" clip-rule="evenodd" d="M13.2815 23.9784H10.7859V9.29083C10.7859 5.66949 13.4461 2.73389 16.7278 2.73389H19.2234V17.4214C19.2234 21.0428 16.5632 23.9784 13.2815 23.9784Z" fill="white"/>
<g id="Group 7">
<path id="Path 33" fill-rule="evenodd" clip-rule="evenodd" d="M42.7469 21.922C40.9592 21.922 39.8267 20.7897 39.8267 19.3V12.9234C39.8267 10.2118 38.6348 9.01987 36.5789 9.01987C34.8507 9.01987 33.6587 10.331 33.6587 12.6252V21.922H32.4668C30.7685 21.922 29.666 20.7897 29.666 19.3V12.3571C29.666 8.96028 31.9009 5.47412 36.9067 5.47412C40.6911 5.47412 43.8197 8.00695 43.8197 12.5656V21.922L42.7469 21.922Z" fill="white"/>
<path id="Path 34" fill-rule="evenodd" clip-rule="evenodd" d="M49.5713 4.69928C48.29 4.69928 47.2471 3.62655 47.2471 2.34524C47.2471 1.06393 48.29 0.0209961 49.5713 0.0209961C50.8528 0.0209961 51.9254 1.06393 51.9254 2.34524C51.9254 3.62655 50.8528 4.69928 49.5713 4.69928ZM52.4021 22.0709C49.3031 22.0709 47.6049 20.3128 47.6049 17.065V6.18898H48.7372C50.5249 6.18898 51.5976 7.14252 51.5976 9.16878V16.6777C51.5976 18.2866 52.283 18.7933 54.041 18.7933H54.786V19.6573C54.786 21.3855 54.1006 22.0709 52.4022 22.0709" fill="white"/>
<path id="Path 35" fill-rule="evenodd" clip-rule="evenodd" d="M61.6685 22.0707C58.3609 22.0707 56.573 20.3126 56.573 17.0649V0.467773H57.7053C59.7016 0.467773 60.5657 1.63009 60.5657 3.14939V16.6775C60.5657 18.2864 61.4003 18.7931 63.2774 18.7931H64.3499V19.6571C64.3499 21.3854 63.4261 22.0707 61.6685 22.0707" fill="white"/>
<path id="Path 36" fill-rule="evenodd" clip-rule="evenodd" d="M72.7526 5.47412C77.5799 5.47412 80.3511 9.34766 80.3511 13.6088C80.3511 18.4358 77.5799 22.2798 72.3952 22.2798C67.5679 22.2798 64.7971 18.4359 64.7971 14.1749C64.7971 9.34767 67.5679 5.47412 72.7526 5.47412M72.3952 9.04988C70.1008 9.04988 68.9386 10.957 68.9386 13.6088C68.9386 16.7972 70.1008 18.704 72.7526 18.704C75.0768 18.704 76.2091 16.7972 76.2091 14.1749C76.2091 10.957 75.0172 9.04989 72.3952 9.04989" fill="white"/>
<path id="Path 37" fill-rule="evenodd" clip-rule="evenodd" d="M87.7407 22.2798C84.791 22.2798 82.5857 20.7601 82.5857 19.1212V17.3035H82.7349C83.599 18.1081 85.6551 18.8232 87.562 18.8232C89.5284 18.8232 90.482 18.2573 90.482 17.0653C90.482 16.1416 89.9162 15.6946 87.145 15.3073C83.748 14.8305 82.1091 13.4896 82.1091 11.0461C82.1091 8.03675 84.8205 5.47412 88.9327 5.47412C92.5678 5.47412 94.0577 7.35139 94.0577 8.90089V10.4206H93.9087C93.0746 9.58625 91.2271 8.93069 89.32 8.93069C86.8768 8.93069 86.1018 9.67544 86.1018 10.7184C86.1018 11.5229 86.5788 11.8507 89.32 12.2977C92.6574 12.834 94.4451 14.2941 94.4451 16.8566C94.4451 20.2535 92.0613 22.2798 87.7407 22.2798" fill="white"/>
</g>
</g>
</svg>
