<svg width="220" height="102" viewBox="0 0 220 102" fill="none" xmlns="http://www.w3.org/2000/svg">
<path d="M11.2928 22.9617C12.0974 18.4141 16.0075 15.1035 20.5739 15.1035H208.707C214.58 15.1035 219.023 20.4755 217.988 26.3234L208.655 79.0773C207.85 83.625 203.94 86.9355 199.373 86.9355H11.2398C5.36771 86.9355 0.924054 81.5636 1.95877 75.7156L11.2928 22.9617Z" fill="black"/>
<path d="M24.1719 73.1155H37.8404L40.5742 57.4227H53.589L50.8554 73.1155H64.524L72.0118 30.1261H58.3433L55.788 45.0371H42.7136L45.3284 30.1261H31.6599L24.1719 73.1155ZM68.9753 73.1155H102.315L104.335 61.6916H84.6052L85.556 56.4007H101.721L103.503 46.1194H87.3387L88.171 41.5499H107.842L109.803 30.1261H76.4634L68.9753 73.1155ZM106.351 73.1155H120.079L122.456 59.7076H125.189C125.724 59.7076 126.2 60.1886 126.497 60.9702L131.251 73.1155H146.643V72.9953L139.333 56.581C144.266 55.078 150.684 51.4704 150.684 42.0309C150.684 33.9741 144.504 30.1261 135.411 30.1261H113.838L106.351 73.1155ZM124.238 49.0055L125.546 41.2492H132.618C135.114 41.2492 136.718 42.3916 136.718 44.5561C136.718 47.5022 134.341 49.0055 130.657 49.0055H124.238ZM170.827 74.2578C185.862 74.2578 196.975 62.714 196.975 47.9832C196.975 35.5374 188.536 28.9837 177.245 28.9837C162.21 28.9837 151.156 40.7081 151.156 55.3185C151.156 67.7644 159.595 74.2578 170.827 74.2578ZM172.609 61.9923C167.974 61.9923 165.419 58.385 165.419 53.4547C165.419 46.6004 170.173 41.2492 175.7 41.2492C180.276 41.2492 182.712 44.9169 182.712 49.8472C182.712 56.6412 178.196 61.9923 172.609 61.9923Z" fill="white"/>
</svg>