<svg width="50%" height="50%" viewBox="0 0 673 169" fill="none" xmlns="http://www.w3.org/2000/svg">
    <path d="M258.2 2.5C237.1 9.9 227 23.6 227 45.1V54H221C217.7 54 215 54.3 215 54.8C215 55.2 217.6 57 220.9 58.8C226.6 61.9 226.7 62.1 227.4 67.2C227.7 70.1 228 90.9 228 113.5V154.5L222.8 159.2L217.5 163.9L246.3 164C262.1 164 275 163.7 275 163.2C275 162.8 272.8 160.7 270 158.5L265 154.5V107.7C265 63.4 265.1 60.8 266.8 61.5C267.7 61.8 273.3 62.4 279.3 62.7L290 63.3V58.6V54H277.6H265.2L259.5 47.8C248.5 35.9 241.9 23.6 243.4 17.6C245.6 8.6 255.7 9 267.2 18.6C273.4 23.8 281.4 33.9 285.1 41.1C286.7 44.4 288.4 47 288.8 47C290.1 46.9 307.1 17.9 306.8 16.2C306.3 13.6 294.9 5.5 288.3 3C284.6 1.6 279.4 0.599998 274 0.299998C266.8 -2.44379e-06 264.4 0.299998 258.2 2.5Z" fill="black"></path>
    <path d="M81.9995 7.60005C72.3995 10.6 61.4995 13.9 57.7995 15.1C53.9995 16.2 50.9995 17.5 50.9995 17.9C50.9995 18.4 53.8995 19.8 57.4995 21.1L64.0995 23.4L63.7995 38.4L63.4995 53.3L55.9995 53.1C32.1995 52.5 10.9996 67.9 3.39955 91.3C-0.10045 102.1 -1.00045 120.7 1.39955 132C5.59955 151.9 18.7995 165.2 36.7995 167.7L41.1995 168.3L53.4995 155.8L65.7995 143.4L66.3995 149.3C67.7995 162.5 73.0995 168.4 83.1995 167.7C90.2995 167.3 95.0995 164.2 102.2 155.6C109.7 146.5 117.4 135.1 116.5 134.2C116.2 133.8 112.7 135.2 108.9 137.2C105.2 139.3 101.8 141 101.5 141C101.2 141 101 109.7 101 71.5C101 33.3 100.7 2.00005 100.3 2.10005C99.7995 2.10005 91.5995 4.60005 81.9995 7.60005ZM56.8995 61.2C58.1995 62.3 60.1995 65.4 61.3995 67.9C63.3995 72.3 63.4995 74.3 63.7995 106.3L64.0995 140L59.7995 142C53.2995 145 50.3995 144.6 45.9995 140.2C39.0995 133.4 36.4995 118.6 37.2995 91.1C37.7995 71.9 38.9995 66.3 43.6995 61.6C47.0995 58.2 53.4995 58 56.8995 61.2Z" fill="black"></path>
    <path d="M524.6 36L509 54H501C496.6 54 493 54.3 493 54.7C493 55.2 495.6 57 498.9 58.9L504.7 62.2L505.3 103.4C506 148.1 506.4 151.9 511.7 159.4C517 166.9 529.4 170.3 537.6 166.4C544.3 163.2 566.6 140.3 564.7 138.4C564.5 138.1 562.5 138.8 560.4 139.9C552.4 144.2 544.3 141.2 542 133.2C540.9 129 540.7 97.8 541.7 76.2L542.3 62L553.2 62.6L564 63.3V58.7V54H553H542V36.6C542 27 541.6 18.9 541.1 18.6C540.7 18.3 533.2 26.1 524.6 36Z" fill="black"></path>
    <path d="M166.499 51.6C142.199 57.8 126.599 70.7 119.899 90C116.799 98.8 116.099 116.9 118.399 126.1C124.699 150.9 145.799 167.3 171.499 167.5C180.199 167.5 180.699 167.4 185.499 164.1C191.599 159.8 216.099 136 215.499 134.9C215.199 134.5 212.199 135.3 208.899 136.6C200.999 139.8 194.899 140.5 187.499 139C179.199 137.3 171.299 132.9 164.699 126.2C159.699 121.1 151.999 110 151.999 107.8C151.999 107.4 158.299 107 165.899 107C177.199 107 181.099 106.6 186.599 104.9C194.899 102.4 207.399 96 211.399 92.4C213.999 90 214.199 89.2 213.699 84.6C212.499 71.1 203.399 58.6 191.499 54.1C185.599 51.8 171.199 50.4 166.499 51.6ZM162.999 63.2C169.599 67.7 174.699 80.6 176.499 96.8L177.199 103.1L163.399 102.8L149.499 102.5L147.699 96C145.099 87.1 144.899 71.7 147.299 67.3C150.799 60.8 156.999 59.2 162.999 63.2Z" fill="black"></path>
    <path d="M339.999 52.6001C326.999 56.0001 312.899 64.9001 302.899 75.8001C294.499 84.9001 281.499 105.9 283.199 107.5C283.699 108.1 320.099 98.1001 321.199 97.1001C321.599 96.7001 321.299 93.1001 320.399 89.0001C318.399 79.6001 318.899 70.9001 321.699 67.2001C326.399 60.9001 334.799 62.3001 339.299 70.2001C342.599 75.9001 343.899 81.0001 344.199 89.8001L344.499 97.0001L332.499 102.3C305.299 114.4 293.399 122.8 288.399 133.5C285.599 139.4 285.199 149.8 287.399 155.1C291.899 165.9 305.799 170.6 319.999 166.4C324.299 165.1 326.699 163.5 331.999 158.2C335.599 154.5 340.099 148.6 341.999 145L345.499 138.5L346.099 147.5C346.699 157.3 347.599 160.3 350.999 163.8C357.499 170.7 368.699 169 377.699 159.8C381.899 155.4 395.999 136.2 395.999 134.8C395.999 133.3 393.599 134 387.199 137.5C383.699 139.5 380.599 140.9 380.399 140.8C380.199 140.6 380.699 128.1 381.499 113C382.999 81.5001 382.499 72.6001 378.399 64.3001C375.499 58.3001 370.999 54.7001 363.399 52.4001C357.399 50.6001 347.099 50.7001 339.999 52.6001ZM341.399 135.7C337.999 140.1 331.099 143.4 327.799 142.1C323.299 140.4 321.499 137.2 321.499 131C321.599 125.9 322.099 124.4 325.299 119.7C327.399 116.7 332.299 111.6 336.299 108.5L343.499 102.7L343.799 117.5C344.099 132.1 343.999 132.3 341.399 135.7Z" fill="black"></path>
    <path d="M436 54.3C424.7 58.2 416.9 63.1 409.9 70.8C396.5 85.4 391.8 109.2 398.2 129.9C401.1 139.3 403.2 143 409.5 149.8C419.5 160.6 432.2 166.6 447.5 167.7C457.1 168.4 459.8 167.3 471.2 158.1C480.2 150.7 495.6 135.3 494.7 134.4C494.4 134.1 490.7 135 486.6 136.5C464.5 144.6 443.4 133 430 105.5C425.2 95.8 422 84.1 422 76.8C422 62.6 431.8 56.3 441 64.7C447.4 70.4 456 90.6 456 99.8C456 100.9 456.4 102.1 456.8 102.4C457.3 102.7 465.6 96.1 475.3 87.9L493 72.9L491.3 69.8C488.9 65.7 481.5 59.3 475.9 56.5C463.4 50.1 450.3 49.4 436 54.3Z" fill="black"></path>
    <path d="M609.3 52.5001C600.4 54.9001 590 60.8001 583.3 67.3001C575.4 74.9001 571.5 81.0001 568.2 90.8001C566 97.4001 565.6 100.3 565.6 111C565.6 122.1 565.9 124.4 568.3 131.3C571.8 141.3 576.2 148.2 583.3 154.7C596.8 167 615.1 171 631.8 165.4C642.6 161.8 649.5 157.6 657.1 150.1C668.1 139.1 673 126.3 673 108.5C673 96.7001 671.3 89.3001 666.5 79.3001C656.3 58.5001 631.1 46.7001 609.3 52.5001ZM608.9 62.5001C615.6 65.9001 623.3 78.4001 631 98.1001C642.1 126.7 645.8 150.2 639.9 156.1C635.5 160.5 627.2 157.1 620.7 148.3C607.8 130.5 593 84.7001 595.5 69.9001C596.9 61.9001 602.2 59.0001 608.9 62.5001Z" fill="black"></path>
</svg>