<svg width="572" height="58" viewBox="0 0 572 58" fill="none" xmlns="http://www.w3.org/2000/svg">
<path d="M110.72 0.859619L82.3706 57.1403H94.6574L101.236 44.0562H133.02L139.524 57.1403H151.975L123.638 0.859619H110.72ZM117.135 12.2245L128.096 34.2463H106.098L117.135 12.2245Z" fill="white"/>
<path d="M153.401 44.9159C158.882 52.8296 172.191 58 185.577 58C201.475 58 213.762 51.8056 213.762 39.5052C213.762 27.3566 202.485 25.2454 186.511 23.4377C172.267 21.7942 168.504 20.8461 168.504 16.7755C168.504 13.0083 173.05 9.7973 183.064 9.7973C192.61 9.7973 200.604 13.0083 204.91 18.5706L212.587 11.2005C207.511 4.46251 196.235 0 183.708 0C167.734 0 157.329 7.29424 157.329 17.9512C157.329 29.0758 167.898 31.6674 181.675 33.235C197.485 34.9542 202.106 35.4346 202.106 40.7568C202.106 45.3078 195.452 48.1269 186.057 48.1269C177.76 48.1269 167.582 45.4595 161.155 36.8378L153.401 44.9159Z" fill="white"/>
<path d="M271.445 0.859619V23.2733H235.355V0.859619H223.852V57.1403H235.355V33.2349H271.445V57.1403H283.038V0.859619H271.445Z" fill="white"/>
<path d="M303.848 57.1403V34.8025H341.58V24.8535H303.848V10.8213H346.05V0.859619H292.496V57.1403H303.848Z" fill="white"/>
<path d="M356.531 57.1403H407.572V47.1913H368.035V0.859619H356.531V57.1403Z" fill="white"/>
<path d="M443.043 0C423.786 0 409.845 12.3003 409.845 29C409.845 45.6996 423.786 58 443.043 58C462.225 58 476.241 45.6996 476.241 29C476.241 12.3003 462.225 0 443.043 0ZM443.043 10.1133C455.646 10.1133 464.422 17.6351 464.422 29C464.422 40.3649 455.658 47.8867 443.043 47.8867C430.428 47.8867 421.665 40.3649 421.665 29C421.665 17.6351 430.441 10.1133 443.043 10.1133Z" fill="white"/>
<path d="M519.214 0.859619L505.121 44.4355L490.321 0.859619H478.262L497.911 57.1403H511.22L525.073 14.1081L538.774 57.1403H552.159L571.808 0.859619H559.988L545.189 44.4355L531.172 0.859619H519.214Z" fill="white"/>
<path d="M79.5546 26.4211V16.4216H69.3388V0.872314H57.8223V16.4342H21.7323V0.872314H10.2158V16.4342H0V26.4338H10.2158V31.5916H0V41.5912H10.2158V57.1404H21.7323V41.5785H57.8223V57.1404H69.3388V41.5785H79.5546V31.5789H69.3388V26.4211H79.5546ZM57.8223 31.5789H21.7323V26.4211H57.8223V31.5789Z" fill="white"/>
</svg>
