<svg xmlns="http://www.w3.org/2000/svg" viewBox="0 0 645 505"><defs><style>.cls-1{fill:none;stroke:#00b0ff;stroke-linejoin:round;stroke-width:45px;}</style></defs><title>Artboard 6</title><g id="Logo"><path class="cls-1" d="M33.7,228.65l281.13,152.6a15.71,15.71,0,0,0,14.87,0l281.92-152.6a18.53,18.53,0,0,0,.86-32.53L330.35,25.1a15.68,15.68,0,0,0-16.16,0l-281.35,171A18.52,18.52,0,0,0,33.7,228.65Z"/><path class="cls-1" d="M33.7,327.45l281.13,152.6a15.71,15.71,0,0,0,14.87,0l281.92-152.6a18.53,18.53,0,0,0,.86-32.53l-282.13-171a15.68,15.68,0,0,0-16.16,0L32.84,295A18.52,18.52,0,0,0,33.7,327.45Z"/></g></svg>