<svg width="55" height="57" viewBox="0 0 55 57" fill="none" xmlns="http://www.w3.org/2000/svg">
<path d="M30.0618 10C33.0473 10 35.6301 10.5175 37.8054 11.555C39.9808 12.5925 41.6415 14.0575 42.7851 15.9527C43.9288 17.8478 44.5006 20.0588 44.5006 22.5857C44.5006 25.1125 43.9288 27.2749 42.7851 29.1701C41.6415 31.0652 39.9808 32.5303 37.8054 33.5678C35.6301 34.6052 33.0473 35.1228 30.0618 35.1228H14.5747V27.0563H29.4423C31.0316 27.0563 32.2705 26.6602 33.1593 25.8657C34.048 25.0712 34.4935 23.9779 34.4935 22.5857C34.4935 21.1935 34.048 20.0515 33.1593 19.257C32.2705 18.4625 31.0316 18.0665 29.4423 18.0665H15.4324L19.8641 13.4015V46.445H10V10H30.0618Z" fill="#011C6C"/>
</svg>
